# xmcd
#
# Track frame offsets: 
#        150
#        15578
#        33465
#        53846
#        75063
#        91564
#        103508
#        118483
#        131717
#        153804
#        169922
#        188519
#        195286
#        215813
#        238722
#        256773
#        272870
#        288096
#        302082
#        313205
#
# Disc length: 4365 seconds
#
# Revision: 0
# Processed by: cddbd v1.5.2PL0 Copyright (c) Steve Scherf et al.
# Submitted via: ExactAudioCopy v0.95b4
#
DISCID=05110b14
DTITLE=Various Artist - Music: The Language of New Orleans, Volume 1
DYEAR=1900
DGENRE=Blues
TTITLE0=LOUISIANA BLUES CHAMPIONS featuring Luther Kent - Ice House Bl
TTITLE0=ues
TTITLE1=VAN BROUSSARD and THE BAYOU BOOGGIE BAND - Harlem Shuffle
TTITLE2=KID MERV and ALL THAT JAZZ - I Cover The Waterfront
TTITLE3=ZACHARY RICHARD - Au Bord De Lac Bijou
TTITLE4=SUNPIE and THE LOUISIANA SUNSPOTS - Louisiana Saturday Nights
TTITLE5=JOHN SINCLAIR and ED MOSS with THE SOCIETY JAZZ ORCHESTRA - The 
TTITLE5=Screamers-The Unexpurgated Blues 
TTITLE6=RHUDABEGA - Whirlwind Psycho
TTITLE7=ROCKIN' TABBY THOMAS - Rock This House
TTITLE8=RICK TOBEY - Karen
TTITLE9=RONNIE KOLE - Chateau Gloria
TTITLE10=LENNY McDANIEL - So Affectionately
TTITLE11=MICHAEL RAY and THE COSMIC KREWE - Angels And Demons At Play
TTITLE12=WEEDEATER - Great Caesar's Ghost
TTITLE13=JOHNNY VIDACOVICH - Banks Street
TTITLE14=VOODOO GROVE - Astronaut Pit
TTITLE15=TIMOTHEA - School Of Hard Knocks
TTITLE16=AL HIRT featuring DR. JOHN - El Jumbo
TTITLE17=JOHN RANKIN - Fess' Mess
TTITLE18=JOHN DuBOIS - Allons A LaQueue (De) Tortue
TTITLE19=THE JOHN PLAUCHE' GROUP - She Caught The Katy (And Left Me A 
TTITLE19=Mule To Ride)
EXTD=
EXTT0=
EXTT1=
EXTT2=
EXTT3=
EXTT4=
EXTT5=
EXTT6=
EXTT7=
EXTT8=
EXTT9=
EXTT10=
EXTT11=
EXTT12=
EXTT13=
EXTT14=
EXTT15=
EXTT16=
EXTT17=
EXTT18=
EXTT19=
PLAYORDER=
